<?xml version="1.0" standalone="no"?>
<!DOCTYPE svg PUBLIC "-//W3C//DTD SVG 20010904//EN"
 "http://www.w3.org/TR/2001/REC-SVG-20010904/DTD/svg10.dtd">
<svg version="1.0" xmlns="http://www.w3.org/2000/svg"
 width="512.000000pt" height="512.000000pt" viewBox="0 0 512.000000 512.000000"
 preserveAspectRatio="xMidYMid meet">
<metadata>
Created by potrace 1.14, written by Peter Selinger 2001-2017
</metadata>
<g transform="translate(0.000000,512.000000) scale(0.100000,-0.100000)"
fill="#000000" stroke="none">
<path d="M2405 4870 c-22 -5 -57 -12 -78 -15 -63 -10 -184 -53 -265 -94 -215
-107 -393 -283 -500 -496 -42 -82 -88 -212 -98 -275 -3 -19 -8 -39 -11 -43
-13 -21 -11 -287 2 -366 39 -233 148 -445 316 -612 167 -166 366 -269 597
-313 73 -13 321 -15 372 -2 14 4 40 9 59 12 68 11 167 47 255 90 324 161 547
460 610 819 14 79 15 304 1 370 -27 129 -52 208 -101 307 -139 288 -419 517
-724 591 -36 9 -78 19 -95 22 -49 10 -297 13 -340 5z"/>
<path d="M1375 2473 c-42 -10 -103 -58 -136 -106 l-34 -50 -2 -1011 c-3 -986
-2 -1012 17 -1036 l19 -25 1303 -3 c717 -1 1313 0 1325 3 55 13 54 -21 51
1062 -3 955 -4 1000 -22 1036 -21 42 -66 89 -112 115 -27 16 -118 17 -1209 18
-649 1 -1189 0 -1200 -3z m761 -574 c7 -6 16 -27 20 -45 6 -32 -5 -51 -146
-265 l-153 -229 145 -218 c80 -120 148 -228 152 -239 18 -57 -30 -110 -90 -98
-32 5 -47 25 -209 268 -106 159 -175 272 -175 287 0 24 307 497 351 541 17 17
29 20 56 16 19 -3 41 -11 49 -18z m624 6 c56 -29 53 -43 -100 -500 -78 -231
-143 -427 -145 -435 -12 -53 -55 -143 -74 -156 -37 -26 -88 -11 -109 32 l-16
35 158 477 c88 262 167 493 177 514 26 51 56 60 109 33z m308 8 c28 -7 359
-496 369 -544 5 -26 -15 -60 -167 -289 -190 -285 -202 -297 -265 -267 -26 13
-35 24 -41 52 -6 34 2 49 146 266 l153 229 -146 220 c-81 120 -149 231 -153
245 -8 32 12 74 41 86 25 10 34 10 63 2z"/>
<path d="M984 1647 c-28 -40 -60 -85 -70 -102 -10 -16 -21 -32 -24 -35 -3 -3
-11 -16 -17 -30 -7 -14 -26 -50 -44 -80 -106 -186 -219 -527 -245 -745 -13
-107 -19 -196 -19 -277 0 -140 -14 -132 258 -136 l222 -3 -3 578 c-1 318 -3
651 -5 740 l-2 162 -51 -72z"/>
<path d="M4080 1003 c0 -395 -3 -728 -6 -741 l-7 -23 227 3 227 3 20 25 c18
23 19 36 14 150 -3 69 -7 136 -9 150 -2 14 -7 54 -11 90 -4 36 -9 68 -11 72
-3 4 -7 26 -10 50 -9 62 -59 235 -100 347 -71 190 -204 432 -311 564 l-23 29
0 -719z"/>
</g>
</svg>
